<svg viewBox="0 0 500 500" width="500" height="500" xmlns="http://www.w3.org/2000/svg" xmlns:bx="https://boxy-svg.com">
  <path d="M 164.206 249.793 m -41.943 0 a 41.943 41.943 0 1 0 83.886 0 a 41.943 41.943 0 1 0 -83.886 0 Z M 164.206 249.793 m -25.166 0 a 25.166 25.166 0 0 1 50.332 0 a 25.166 25.166 0 0 1 -50.332 0 Z"  transform="matrix(0.256234, 0.966615, -0.966615, 0.256234, 251.871063, 171.960861)" bx:shape="ring 164.206 249.793 25.166 25.166 41.943 41.943 1@dd780ec7"/>
  <path d="M 199.118 227.664 m -101.386 0 a 101.386 101.386 0 1 0 202.772 0 a 101.386 101.386 0 1 0 -202.772 0 Z M 199.118 227.664 m -60.831 0 a 60.831 60.831 0 0 1 121.662 0 a 60.831 60.831 0 0 1 -121.662 0 Z"  transform="matrix(0.93649, 0.350695, -0.350695, 0.93649, 41.237434, 51.200127)" bx:shape="ring 199.118 227.664 60.831 60.831 101.386 101.386 1@dbd24f12"/>
  <path d="M 238.421 182.465 m -97.458 0 a 97.458 97.458 0 1 0 194.916 0 a 97.458 97.458 0 1 0 -194.916 0 Z M 238.421 182.465 m -58.473 0 a 58.473 58.473 0 0 1 116.946 0 a 58.473 58.473 0 0 1 -116.946 0 Z"  transform="matrix(0.773604, 0.63367, -0.63367, 0.773604, 186.419464, -81.479683)" bx:shape="ring 238.421 182.465 58.473 58.473 97.458 97.458 1@3fd207c9"/>
  <path d="M 272.964 199.031 m -100.381 0 a 100.381 100.381 0 1 0 200.762 0 a 100.381 100.381 0 1 0 -200.762 0 Z M 272.964 199.031 m -60.23 0 a 60.23 60.23 0 0 1 120.46 0 a 60.23 60.23 0 0 1 -120.46 0 Z"  transform="matrix(-0.993579, 0.113144, -0.113144, -0.993579, 643.336365, 422.878845)" bx:shape="ring 272.964 199.031 60.23 60.23 100.381 100.381 1@567b9c2c"/>
</svg>