<svg xmlns="http://www.w3.org/2000/svg" xmlns:xlink="http://www.w3.org/1999/xlink" width="1613" height="240">\n<path  d="M 0 0
L 1613 0
L 1613 240
L 0 240
L 0 0" style="stroke-width:0;stroke:rgba(255,255,255,1.0);fill:rgba(255,255,255,1.0)"/><path  d="M 5 5
L 1608 5
L 1608 235
L 5 235
L 5 5" style="stroke-width:0;stroke:rgba(255,255,255,1.0);fill:rgba(255,255,255,1.0)"/><path  d="M 4 235
L 4 5" style="display:none;"/><path  d="M 4 -9223372036854775573
L -1 -9223372036854775573" style="stroke-width:1;stroke:rgba(51,51,51,1.0);fill:none"/><text x="-32" y="-9223372036854775567" style="stroke-width:0;stroke:none;fill:rgba(51,51,51,1.0);font-size:12.8px;font-family:'Roboto Medium',sans-serif">0.00</text><path  d="M 4 -9223372036854775573
L -1 -9223372036854775573" style="stroke-width:1;stroke:rgba(51,51,51,1.0);fill:none"/><text x="-32" y="-9223372036854775567" style="stroke-width:0;stroke:none;fill:rgba(51,51,51,1.0);font-size:12.8px;font-family:'Roboto Medium',sans-serif">0.00</text><path  d="M 4 -9223372036854775573
L -1 -9223372036854775573" style="stroke-width:1;stroke:rgba(51,51,51,1.0);fill:none"/><text x="-32" y="-9223372036854775567" style="stroke-width:0;stroke:none;fill:rgba(51,51,51,1.0);font-size:12.8px;font-family:'Roboto Medium',sans-serif">0.00</text><path  d="M 4 -9223372036854775573
L -1 -9223372036854775573" style="stroke-width:1;stroke:rgba(51,51,51,1.0);fill:none"/><text x="-32" y="-9223372036854775567" style="stroke-width:0;stroke:none;fill:rgba(51,51,51,1.0);font-size:12.8px;font-family:'Roboto Medium',sans-serif">0.00</text><path  d="M 4 -9223372036854775573
L -1 -9223372036854775573" style="stroke-width:1;stroke:rgba(51,51,51,1.0);fill:none"/><text x="-32" y="-9223372036854775567" style="stroke-width:0;stroke:none;fill:rgba(51,51,51,1.0);font-size:12.8px;font-family:'Roboto Medium',sans-serif">0.00</text><path  d="M 4 -9223372036854775573
L -1 -9223372036854775573" style="stroke-width:1;stroke:rgba(51,51,51,1.0);fill:none"/><text x="-32" y="-9223372036854775567" style="stroke-width:0;stroke:none;fill:rgba(51,51,51,1.0);font-size:12.8px;font-family:'Roboto Medium',sans-serif">0.00</text><path  d="M 5 -9223372036854775573
L 1608 -9223372036854775573" style="stroke-width:0;stroke:none;fill:none"/><path  d="M 5 -9223372036854775573
L 1608 -9223372036854775573" style="stroke-width:0;stroke:none;fill:none"/><path  d="M 5 -9223372036854775573
L 1608 -9223372036854775573" style="stroke-width:0;stroke:none;fill:none"/><path  d="M 5 -9223372036854775573
L 1608 -9223372036854775573" style="stroke-width:0;stroke:none;fill:none"/><path  d="M 5 -9223372036854775573
L 1608 -9223372036854775573" style="stroke-width:0;stroke:none;fill:none"/><path  d="M 5 235
L 406 5
L 807 56
L 1208 158
L 1608 132
L 1608 235
L 5 235
L 5 235" style="stroke-width:0;stroke:none;fill:rgba(248,148,6,0.1)"/><path  d="M 5 235
L 406 5
L 807 56
L 1208 158
L 1608 132" style="stroke-width:1;stroke:rgba(185,73,71,0.0);fill:none"/></svg>