<svg xmlns="http://www.w3.org/2000/svg"  viewBox="-835.864 -128.936 902.86 187.076"><path d="m-815.134 10.938-8.496-110.303q0-1.684 1.977-1.758l15.235-.512q1.611 0 1.611 1.391l3.442 82.617 19.409-81.738q.22-.952.55-1.318.329-.366 1.208-.44l15.161-.586q1.612 0 1.612 1.392l-32.154 110.742q-.512 1.758-1.757 1.758l-16.187.586q-1.465-.073-1.611-1.831ZM-741.241-84.057h-2.27q-2.271 0-4.981-2.857-2.71-2.856-2.71-7.361 0-4.504 3.626-8.056 3.625-3.552 8.166-3.552t7.361 2.856q2.82 2.856 2.82 7.361 0 4.504-3.735 8.056-3.736 3.553-8.277 3.553Zm8.13 9.887-9.521 84.449q-.147 1.025-.513 1.464-.366.44-1.391.513l-14.722.513q-1.612-.147-1.612-1.392l9.668-85.18q.293-1.612 1.832-1.758l14.282-.513q1.977.147 1.977 1.904ZM-693.044-74.17l-.806 6.739q10.547-9.302 20.215-9.302 12.305 0 15.527 13.476.879 3.663.879 6.922t-.219 5.237l-7.032 61.377q-.293 1.831-1.831 1.977l-14.795.513q-1.611-.147-1.611-1.392l6.665-58.008q.22-1.904.22-3.442 0-6.006-2.82-8.166-2.82-2.161-7.141-2.161t-9.009 1.831l-7.837 68.848q-.293 1.831-1.831 1.977l-14.795.513q-1.611-.147-1.611-1.392l9.668-85.18q.293-1.612 1.831-1.758l14.355-.513q1.978.073 1.978 1.904ZM-590.211-74.463q1.612.586 1.612 2.784l-1.685 13.256q-.146 1.465-2.014 1.465-1.868 0-3.552-.732-7.105-3.15-11.792-3.15-4.688 0-7.471 3.882-2.783 3.882-4.468 11.133-3.149 13.55-3.149 24.756 0 18.018 9.302 18.018 6.738 0 10.913-1.722 4.174-1.721 5.42-1.721 2.563 0 2.563 2.197l-1.538 12.891q-.146 1.318-.549 1.575-.403.256-1.062.549-8.863 2.564-16.663 2.564-7.8 0-12.305-1.978-4.504-1.978-7.141-5.09-2.636-3.113-4.248-7.508-2.856-7.544-2.856-18.567 0-11.022 1.428-19.189 1.428-8.166 3.003-13.293 1.575-5.127 4.211-9.852 2.637-4.724 6.153-7.8 7.69-6.738 20.361-6.738 8.496 0 15.527 2.27ZM-573.035-1.257l-.861-2.179q-.861-2.179-1.483-6.464-.623-4.284-.623-11.755 0-7.471 1.612-18.457 5.346-36.621 33.252-36.621 10.766 0 16.479 7.397 5.713 7.398 5.713 19.19 0 11.792-1.465 22.925-.22 1.977-2.27 2.05l-36.182 1.246q-.073 1.098-.073 2.929 0 8.277 2.893 13.111 2.893 4.834 8.752 4.834 5.86 0 10.877-1.722 5.017-1.721 5.896-1.721.879 0 1.538.586t.659 1.611l-1.465 12.891q-.073 1.099-.403 1.428-.329.33-1.281.696-8.863 2.564-17.066 2.564t-12.744-1.978q-4.541-1.978-7.288-5.09-2.746-3.113-4.467-7.471Zm15.93-41.052-.659 4.687 19.116-.952q1.245-.073 1.611-.439 1.099-1.099 1.099-6.043t-.33-6.958q-.329-2.014-1.135-4.138-1.685-4.688-5.75-4.688-4.064 0-6.408 1.392-5.2 3.223-7.544 17.139ZM-427.837-99.951l8.569 110.303q0 1.684-1.904 1.831l-15.308.586q-1.538 0-1.538-1.392l-1.099-24.17-16.626.66-5.493 22.558q-.22 1.026-.586 1.392-.366.366-1.318.439l-15.161.513q-1.465 0-1.465-1.392l32.153-110.815q.513-1.611 1.978-1.685l16.113-.586q1.538.074 1.685 1.758Zm-13.843 30.176-10.254 42.041 12.158-.44ZM-375.683-74.17l-.806 6.739q10.547-9.302 20.215-9.302 12.305 0 15.528 13.476.879 3.663.879 6.922t-.22 5.237l-7.031 61.377q-.293 1.831-1.831 1.977l-14.795.513q-1.612-.147-1.612-1.392l6.665-58.008q.22-1.904.22-3.442 0-6.006-2.82-8.166-2.82-2.161-7.141-2.161t-9.009 1.831l-7.837 68.848q-.293 1.831-1.831 1.977l-14.795.513q-1.611-.147-1.611-1.392l9.668-85.18q.293-1.612 1.831-1.758l14.356-.513q1.977.073 1.977 1.904ZM-260.406-74.17l-9.522 84.449q-.219 1.904-1.904 1.977l-14.795.513q-1.538-.147-1.538-1.392l1.392-9.961q-3.369 5.713-7.361 8.789-3.992 3.077-8.972 3.077-4.981 0-8.496-1.722-3.516-1.721-5.75-4.541-2.234-2.819-3.625-6.775-2.564-7.031-2.564-19.226 0-12.194 1.648-20.691 1.648-8.496 2.893-12.927 1.245-4.431 3.333-9.118 2.087-4.688 4.724-7.837 6.006-7.178 15.161-7.178 6.811 0 10.4 3.259 3.589 3.259 6.006 9.632l.879-9.961q.147-1.612 1.831-1.758l14.356-.513q1.904.147 1.904 1.904Zm-44.678 53.101q0 17.505 9.375 17.505 4.102 0 6.665-3.772 2.564-3.772 4.431-15.125 1.868-11.352 1.868-16.552 0-5.201-.073-6.592-.073-1.392-.293-3.699-.22-2.307-.806-3.882-.586-1.574-1.538-3.186-1.904-3.149-6.152-3.149t-6.739 3.772q-2.49 3.772-3.881 10.071-2.857 13.476-2.857 24.609ZM-216.46-109.472l-13.477 119.677q-.146 1.026-.513 1.465-.366.44-1.391.513l-14.722.586q-1.611-.147-1.611-1.392l13.55-120.337q.146-1.025.512-1.464.366-.44 1.392-.513l14.355-.513q1.905.22 1.905 1.978ZM-144.978-74.17l-42.26 119.898q-.586 1.831-2.124 1.904l-14.722.513q-1.611-.073-1.611-1.465l12.597-35.522-11.426-84.961q0-1.685 1.831-1.758l14.429-.513q1.685.073 1.831 1.904l5.567 61.597 17.797-61.23q.44-1.685 1.905-1.758l14.355-.513q1.831.147 1.831 1.904ZM-127.833-75.781q1.685-16.113 2.197-16.663.513-.549 1.538-.622l13.99-.513q1.977.147 1.977 1.831-1.391 8.13-2.344 15.601l17.066-.586q1.758.073 1.758 1.904l-2.051 11.646q-.293 1.758-1.831 1.831l-16.773.659q-4.98 44.824-4.98 49.438 0 8.57 7.324 8.57 3.735 0 7.251-1.172 3.516-1.172 4.395-1.172 1.538 0 1.538 1.904l-1.538 12.818q-.147 1.098-.55 1.611-.403.513-3.589 1.245-3.186.733-10.876.733-11.279 0-16.699-5.237-5.42-5.237-5.42-15.637 0-10.401 5.786-52.881l-7.178.293q-1.831-.074-1.831-1.831l1.978-11.792q.219-1.685 1.904-1.758ZM-65.212-84.057h-2.271q-2.27 0-4.98-2.857-2.71-2.856-2.71-7.361 0-4.504 3.625-8.056 3.626-3.552 8.167-3.552t7.361 2.856q2.819 2.856 2.819 7.361 0 4.504-3.735 8.056-3.735 3.553-8.276 3.553Zm8.13 9.887-9.522 84.449q-.146 1.025-.513 1.464-.366.44-1.391.513l-14.722.513q-1.611-.147-1.611-1.392l9.668-85.18q.293-1.612 1.831-1.758l14.282-.513q1.978.147 1.978 1.904ZM7.659-74.463q1.611.586 1.611 2.784L7.586-58.423q-.147 1.465-2.014 1.465-1.868 0-3.553-.732-7.104-3.15-11.792-3.15-4.687 0-7.47 3.882-2.783 3.882-4.468 11.133-3.149 13.55-3.149 24.756 0 18.018 9.301 18.018 6.739 0 10.913-1.722Q-.471-6.494.774-6.494q2.564 0 2.564 2.197L1.8 8.594q-.147 1.318-.55 1.575-.402.256-1.062.549-8.862 2.564-16.662 2.564-7.8 0-12.305-1.978-4.504-1.978-7.141-5.09-2.637-3.113-4.248-7.508-2.856-7.544-2.856-18.567 0-11.022 1.428-19.189 1.428-8.166 3.003-13.293 1.574-5.127 4.211-9.852 2.637-4.724 6.152-7.8 7.691-6.738 20.362-6.738 8.496 0 15.527 2.27ZM60.101-59.008l-8.277-.367q-3.515 0-5.53 1.612-2.014 1.611-2.014 4.651 0 3.039 1.099 6.701 1.465 4.907 5.09 11.426 3.626 6.519 5.017 9.228 4.248 8.423 4.248 16.041 0 11.059-6.482 17.028-6.482 5.97-19.665 5.97-6.519 0-10.401-.696-3.881-.696-4.284-1.099t-.403-1.282l1.904-13.549q.147-1.831 1.282-1.831t4.358.805q3.223.806 5.64.806 8.935 0 8.935-7.105 0-5.053-2.161-9.448-2.16-4.394-4.687-9.082-2.527-4.687-3.918-7.507-1.392-2.82-2.894-7.801-1.501-4.98-1.501-9.375 0-10.253 6.116-16.552 6.115-6.299 17.834-6.299 7.544 0 11.792.732 1.831.293 1.831 1.905l-1.611 13.037q0 2.051-1.318 2.051Z" transform="translate(-2.1 -2.1)" style="fill:#354a57"/></svg>