<svg width="100%" height="100%" 
viewBox="0 0 97.949 31.036" xmlns="http://www.w3.org/2000/svg"><g id="svgGroup" stroke-linecap="round" fill-rule="evenodd" font-size="9pt" stroke="#000" stroke-width="0.25mm" fill="#000" style="stroke:#000;stroke-width:0.25mm;fill:#000"><path d="M 0 13.262 L 0 13.34 L 0 13.242 L 0 13.262 Q 0 13.992 0.262 15.171 A 23.185 23.185 0 0 0 0.508 16.162 A 33.375 33.375 0 0 0 0.524 16.222 Q 1.029 18.083 1.865 20.322 A 58.647 58.647 0 0 0 3.76 24.814 A 42.157 42.157 0 0 0 4.812 26.902 A 31.317 31.317 0 0 0 5.879 28.73 A 11.522 11.522 0 0 0 6.027 28.955 Q 6.403 29.512 6.737 29.854 A 2.748 2.748 0 0 0 7.08 30.156 A 1.377 1.377 0 0 0 7.363 30.311 Q 7.748 30.471 8.375 30.522 A 7.962 7.962 0 0 0 9.023 30.547 L 11.094 30.547 Q 12.02 30.547 12.568 30.353 A 1.567 1.567 0 0 0 12.988 30.137 Q 13.373 29.848 13.825 29.27 A 10.771 10.771 0 0 0 14.219 28.73 Q 14.803 27.895 15.377 26.906 A 35.537 35.537 0 0 0 16.445 24.912 A 54.637 54.637 0 0 0 18.428 20.439 Q 18.872 19.302 19.226 18.257 A 37.083 37.083 0 0 0 19.844 16.26 A 27.005 27.005 0 0 0 19.973 15.777 Q 20.374 14.218 20.391 13.301 L 20.391 13.262 L 20.391 13.34 L 20.391 13.301 Q 20.391 13.092 20.344 12.924 A 0.883 0.883 0 0 0 20.195 12.617 A 8.692 8.692 0 0 0 19.754 12.1 A 11.32 11.32 0 0 0 19.16 11.504 A 11.293 11.293 0 0 0 18.984 11.343 Q 18.713 11.099 18.393 10.842 A 20.408 20.408 0 0 0 17.676 10.293 A 0.985 0.985 0 0 0 17.594 10.232 A 0.751 0.751 0 0 0 17.168 10.098 Q 17.011 10.098 16.835 10.186 A 1.34 1.34 0 0 0 16.66 10.293 A 24.449 24.449 0 0 0 16.424 10.473 Q 16.076 10.74 15.774 10.993 A 14.194 14.194 0 0 0 15.195 11.504 A 13.428 13.428 0 0 0 14.695 11.996 A 10.589 10.589 0 0 0 14.141 12.617 A 0.805 0.805 0 0 0 14.032 12.81 Q 13.986 12.925 13.964 13.068 A 1.814 1.814 0 0 0 13.945 13.34 L 13.945 13.262 A 6.468 6.468 0 0 1 13.945 13.301 Q 13.942 13.893 13.83 14.719 A 22.394 22.394 0 0 1 13.701 15.547 A 27.349 27.349 0 0 1 13.401 17.021 A 36.93 36.93 0 0 1 12.988 18.633 Q 12.52 20.313 11.836 21.992 Q 11.152 23.672 10.273 25.117 L 10.176 25.117 A 24.874 24.874 0 0 1 9.541 23.885 A 28.966 28.966 0 0 1 8.32 20.918 A 43.776 43.776 0 0 1 7.768 19.236 A 35.641 35.641 0 0 1 7.061 16.572 A 31.401 31.401 0 0 1 7.02 16.386 Q 6.738 15.086 6.646 14.113 A 9.303 9.303 0 0 1 6.602 13.242 L 6.602 13.34 Q 6.602 13.096 6.544 12.911 A 0.833 0.833 0 0 0 6.387 12.617 A 8.316 8.316 0 0 0 5.911 12.065 A 10.971 10.971 0 0 0 5.342 11.504 Q 4.957 11.15 4.462 10.765 A 20.847 20.847 0 0 0 3.828 10.293 A 1.427 1.427 0 0 0 3.762 10.249 Q 3.664 10.186 3.568 10.15 A 0.746 0.746 0 0 0 3.301 10.098 A 0.658 0.658 0 0 0 3.133 10.121 Q 2.966 10.165 2.773 10.293 A 20.206 20.206 0 0 0 2.008 10.878 Q 0.894 11.776 0.215 12.617 A 0.875 0.875 0 0 0 0.035 12.967 A 1.167 1.167 0 0 0 0 13.262 Z" id="0" vector-effect="non-scaling-stroke"/><path d="M 30.176 11.582 L 30.176 29.512 Q 30.176 30.02 29.992 30.256 A 0.537 0.537 0 0 1 29.932 30.322 A 0.695 0.695 0 0 1 29.712 30.455 Q 29.477 30.547 29.102 30.547 L 25.078 30.547 A 2.409 2.409 0 0 1 24.791 30.531 Q 24.492 30.495 24.318 30.377 A 0.594 0.594 0 0 1 24.248 30.322 Q 24.004 30.098 24.004 29.512 L 24.004 11.582 Q 24.004 11.074 24.188 10.837 A 0.537 0.537 0 0 1 24.248 10.771 A 0.695 0.695 0 0 1 24.468 10.639 Q 24.703 10.547 25.078 10.547 L 29.102 10.547 A 2.409 2.409 0 0 1 29.389 10.563 Q 29.688 10.599 29.862 10.717 A 0.594 0.594 0 0 1 29.932 10.771 Q 30.176 10.996 30.176 11.582 Z M 23.262 3.535 A 0.699 0.699 0 0 0 23.106 3.984 Q 23.106 4.238 23.262 4.424 A 20.77 20.77 0 0 1 23.34 4.518 Q 23.478 4.683 23.672 4.922 A 21.437 21.437 0 0 0 24.12 5.433 A 26.527 26.527 0 0 0 24.902 6.26 Q 25.586 6.953 26.367 7.578 A 8.796 8.796 0 0 0 26.378 7.586 Q 26.682 7.814 26.826 7.881 A 0.797 0.797 0 0 0 26.935 7.923 A 0.608 0.608 0 0 0 27.109 7.949 A 0.552 0.552 0 0 0 27.119 7.949 Q 27.192 7.948 27.269 7.928 A 0.895 0.895 0 0 0 27.402 7.881 A 0.754 0.754 0 0 0 27.473 7.845 Q 27.616 7.763 27.832 7.578 A 24.915 24.915 0 0 0 29.277 6.26 A 27.713 27.713 0 0 0 29.937 5.588 A 20.327 20.327 0 0 0 30.508 4.961 A 80.136 80.136 0 0 1 30.63 4.813 Q 30.758 4.658 30.858 4.54 A 25.02 25.02 0 0 1 30.947 4.434 A 0.673 0.673 0 0 0 31.113 3.984 A 0.711 0.711 0 0 0 30.947 3.525 A 13.774 13.774 0 0 0 30.81 3.359 Q 30.736 3.27 30.649 3.168 A 30.007 30.007 0 0 0 30.527 3.027 A 22.401 22.401 0 0 0 29.297 1.719 A 30.48 30.48 0 0 0 27.832 0.371 Q 27.472 0.097 27.249 0.025 A 0.463 0.463 0 0 0 27.109 0 Q 26.875 0 26.406 0.371 A 39.982 39.982 0 0 0 24.941 1.709 A 24.26 24.26 0 0 0 24.263 2.385 A 18.323 18.323 0 0 0 23.672 3.027 Q 23.481 3.262 23.346 3.43 A 51.013 51.013 0 0 0 23.262 3.535 Z" id="1" vector-effect="non-scaling-stroke"/><path d="M 54.824 18.105 L 54.824 29.512 Q 54.824 30.02 54.641 30.256 A 0.537 0.537 0 0 1 54.58 30.322 A 0.695 0.695 0 0 1 54.36 30.455 Q 54.125 30.547 53.75 30.547 L 49.727 30.547 A 2.409 2.409 0 0 1 49.439 30.531 Q 49.141 30.495 48.966 30.377 A 0.594 0.594 0 0 1 48.897 30.322 Q 48.652 30.098 48.652 29.512 L 48.652 19.121 Q 48.652 16.992 47.754 16.016 A 2.966 2.966 0 0 0 45.979 15.089 A 4.256 4.256 0 0 0 45.313 15.039 Q 43.77 15.039 42.939 15.703 A 4.384 4.384 0 0 0 41.66 17.383 L 41.66 29.512 Q 41.66 30.02 41.476 30.256 A 0.537 0.537 0 0 1 41.416 30.322 A 0.695 0.695 0 0 1 41.196 30.455 Q 40.961 30.547 40.586 30.547 L 36.563 30.547 A 2.409 2.409 0 0 1 36.275 30.531 Q 35.977 30.495 35.802 30.377 A 0.594 0.594 0 0 1 35.732 30.322 Q 35.488 30.098 35.488 29.512 L 35.488 13.145 A 1.814 1.814 0 0 1 35.507 12.873 Q 35.529 12.73 35.575 12.615 A 0.805 0.805 0 0 1 35.684 12.422 A 8.898 8.898 0 0 1 36.198 11.8 A 11.437 11.437 0 0 1 36.67 11.309 A 12.249 12.249 0 0 1 37.225 10.798 Q 37.614 10.46 38.086 10.098 A 1.162 1.162 0 0 1 38.256 9.987 Q 38.357 9.935 38.455 9.915 A 0.591 0.591 0 0 1 38.574 9.902 Q 38.728 9.902 38.911 10.002 A 1.468 1.468 0 0 1 39.063 10.098 A 18.936 18.936 0 0 1 39.78 10.689 Q 40.11 10.976 40.39 11.25 A 11.326 11.326 0 0 1 40.469 11.328 A 10.032 10.032 0 0 1 41.331 12.306 A 9.015 9.015 0 0 1 41.504 12.539 L 41.602 12.539 Q 41.919 12.128 42.539 11.584 A 14.074 14.074 0 0 1 42.598 11.533 A 4.305 4.305 0 0 1 43.198 11.102 Q 43.731 10.782 44.463 10.508 Q 45.367 10.17 46.652 10.086 A 13.671 13.671 0 0 1 47.539 10.059 A 8.471 8.471 0 0 1 51.035 10.801 A 5.802 5.802 0 0 1 53.247 12.556 A 7.467 7.467 0 0 1 53.76 13.301 Q 54.824 15.059 54.824 18.105 Z" id="2" vector-effect="non-scaling-stroke"/><path d="M 75.078 25.781 L 76.504 29.004 A 1.027 1.027 0 0 1 76.546 29.123 Q 76.642 29.46 76.399 29.648 A 0.717 0.717 0 0 1 76.27 29.727 Q 75.721 30.009 74.63 30.347 A 30.265 30.265 0 0 1 73.887 30.566 Q 72.597 30.931 70.835 31.012 A 22.817 22.817 0 0 1 69.785 31.035 Q 65.275 31.035 62.435 28.829 A 9.382 9.382 0 0 1 61.953 28.428 A 8.251 8.251 0 0 1 59.545 24.548 Q 59.138 23.195 59.048 21.562 A 17.204 17.204 0 0 1 59.023 20.625 A 13.667 13.667 0 0 1 59.28 17.909 A 9.925 9.925 0 0 1 60.371 14.941 A 8.988 8.988 0 0 1 64.199 11.318 A 11.335 11.335 0 0 1 67.415 10.275 A 15.466 15.466 0 0 1 70.059 10.059 Q 72.383 10.059 73.438 10.439 A 18.071 18.071 0 0 1 73.862 10.598 Q 74.552 10.867 74.766 11.035 A 1.907 1.907 0 0 1 75.43 11.738 Q 75.534 11.903 75.662 12.25 A 8.163 8.163 0 0 1 75.742 12.48 A 5.616 5.616 0 0 1 75.931 13.215 A 6.795 6.795 0 0 1 75.996 13.633 Q 76.085 14.078 76.028 14.287 A 0.412 0.412 0 0 1 76.016 14.326 Q 75.938 14.531 75.527 14.824 A 6.563 6.563 0 0 1 74.674 15.303 A 7.396 7.396 0 0 1 74.502 15.381 A 11.717 11.717 0 0 1 74.174 15.519 Q 73.835 15.656 73.594 15.723 A 1.986 1.986 0 0 1 73.478 15.75 Q 73.268 15.793 73.145 15.762 A 0.619 0.619 0 0 1 73.047 15.727 Q 72.946 15.683 72.811 15.593 A 3.274 3.274 0 0 1 72.715 15.527 A 3.673 3.673 0 0 0 72.495 15.388 Q 72.225 15.23 71.836 15.049 Q 71.27 14.785 70.273 14.785 Q 69.004 14.785 67.861 15.41 A 4.61 4.61 0 0 0 66.288 16.838 A 5.702 5.702 0 0 0 66.006 17.285 A 5.119 5.119 0 0 0 65.471 18.691 Q 65.328 19.32 65.3 20.05 A 9.394 9.394 0 0 0 65.293 20.41 A 8.638 8.638 0 0 0 65.452 22.119 Q 65.777 23.729 66.768 24.766 A 4.899 4.899 0 0 0 69.615 26.224 A 6.96 6.96 0 0 0 70.723 26.309 A 10.104 10.104 0 0 0 71.597 26.273 Q 72.301 26.212 72.832 26.045 Q 73.383 25.872 73.783 25.695 A 4.544 4.544 0 0 0 74.16 25.508 A 1.678 1.678 0 0 1 74.3 25.439 Q 74.541 25.334 74.697 25.377 A 0.298 0.298 0 0 1 74.756 25.4 Q 74.949 25.501 75.064 25.749 A 1.168 1.168 0 0 1 75.078 25.781 Z" id="3" vector-effect="non-scaling-stroke"/><path d="M 93.106 22.422 L 84.727 22.422 A 5.321 5.321 0 0 0 84.989 23.744 A 3.74 3.74 0 0 0 86.201 25.488 Q 87.52 26.543 89.785 26.543 A 9.815 9.815 0 0 0 90.912 26.482 Q 91.946 26.363 92.666 26.006 A 26.274 26.274 0 0 0 93.167 25.751 Q 93.857 25.391 94.18 25.156 A 1.279 1.279 0 0 1 94.958 24.901 A 1.491 1.491 0 0 1 95.02 24.902 Q 95.328 24.902 95.86 25.004 A 11.543 11.543 0 0 1 96.084 25.049 A 4.565 4.565 0 0 1 97.118 25.406 A 5.427 5.427 0 0 1 97.461 25.586 A 1.178 1.178 0 0 1 97.697 25.744 A 0.698 0.698 0 0 1 97.949 26.289 A 1.885 1.885 0 0 1 97.941 26.459 Q 97.925 26.63 97.881 26.863 A 7.842 7.842 0 0 1 97.852 27.012 A 8.548 8.548 0 0 1 97.817 27.164 Q 97.759 27.415 97.656 27.803 A 5.59 5.59 0 0 1 97.383 28.599 A 5.042 5.042 0 0 1 97.305 28.77 A 1.085 1.085 0 0 1 97.165 28.967 Q 97.09 29.052 96.991 29.134 A 1.97 1.97 0 0 1 96.934 29.18 A 5.012 5.012 0 0 1 96.708 29.327 Q 96.326 29.565 95.674 29.902 A 6.446 6.446 0 0 1 95.001 30.198 Q 94.645 30.334 94.219 30.457 A 15.934 15.934 0 0 1 93.301 30.693 A 11.952 11.952 0 0 1 92.067 30.901 Q 91.432 30.976 90.696 31.009 A 26.851 26.851 0 0 1 89.492 31.035 Q 86.307 31.035 83.923 30.044 A 10.833 10.833 0 0 1 83.75 29.971 A 8.066 8.066 0 0 1 79.961 26.66 A 8.755 8.755 0 0 1 78.994 24.267 Q 78.613 22.748 78.613 20.859 Q 78.613 17.138 79.945 14.682 A 8.143 8.143 0 0 1 81.348 12.793 A 9.168 9.168 0 0 1 86.444 10.232 A 13.018 13.018 0 0 1 88.613 10.059 A 13.721 13.721 0 0 1 90.86 10.233 Q 92.392 10.487 93.604 11.113 A 7.755 7.755 0 0 1 95.751 12.72 A 7.101 7.101 0 0 1 96.709 14.023 A 8.046 8.046 0 0 1 97.723 17.244 A 9.955 9.955 0 0 1 97.773 18.262 Q 97.773 20.586 96.582 21.504 A 3.891 3.891 0 0 1 95.395 22.111 Q 94.855 22.286 94.198 22.362 A 9.462 9.462 0 0 1 93.106 22.422 Z M 84.688 18.418 L 91.055 18.418 A 1.567 1.567 0 0 0 91.437 18.376 Q 92.051 18.221 92.051 17.5 A 3.653 3.653 0 0 0 91.85 16.269 A 3.205 3.205 0 0 0 91.182 15.166 Q 90.313 14.219 88.574 14.219 A 4.669 4.669 0 0 0 87.495 14.336 Q 86.728 14.518 86.197 14.985 A 2.785 2.785 0 0 0 85.791 15.43 A 5.627 5.627 0 0 0 84.943 17.165 A 7.531 7.531 0 0 0 84.688 18.418 Z" id="4" vector-effect="non-scaling-stroke"/></g></svg>