<svg xmlns="http://www.w3.org/2000/svg" xmlns:bx="https://boxy-svg.com" width="500" height="500"><path bx:shape="ring 164.206 249.793 25.166 25.166 41.943 41.943 1@dd780ec7" d="M41.745 354.148a41.943 41.943 0 1 0 21.495 81.085 41.943 41.943 0 1 0-21.495-81.085ZM46.044 370.364a25.166 25.166 0 0 1 12.897 48.652 25.166 25.166 0 0 1-12.897-48.652Z"/><path bx:shape="ring 199.118 227.664 60.831 60.831 101.386 101.386 1@dbd24f12" d="M52.922 298.679a101.386 101.386 0 1 0 189.894 71.111 101.386 101.386 0 1 0-189.894-71.11ZM90.9 312.902a60.831 60.831 0 0 1 113.935 42.666 60.831 60.831 0 0 1-113.935-42.666Z"/><path bx:shape="ring 238.421 182.465 58.473 58.473 97.458 97.458 1@3fd207c9" d="M179.846 149a97.458 97.458 0 1 0 150.788 123.512A97.458 97.458 0 1 0 179.846 149ZM210.005 173.704a58.473 58.473 0 0 1 90.47 74.105 58.473 58.473 0 0 1-90.47-74.105Z"/><path bx:shape="ring 272.964 199.031 60.23 60.23 100.381 100.381 1@567b9c2c" d="M449.342 244.653a100.381 100.381 0 1 0-199.473 22.715 100.381 100.381 0 1 0 199.473-22.715ZM409.45 249.195a60.23 60.23 0 0 1-119.686 13.63 60.23 60.23 0 0 1 119.686-13.63Z"/></svg>